<svg width="28" height="28" viewBox="0 0 28 28" fill="none" xmlns="http://www.w3.org/2000/svg">
    <path id="Union"
        d="M20.019 15.375C19.3894 18.2581 16.8218 20.4167 13.75 20.4167C11.5696 20.4167 9.6429 19.329 8.48342 17.6667H0.494364C2.09898 23.4805 7.42576 27.75 13.75 27.75C21.3438 27.75 27.5 21.5939 27.5 14C27.5 13.5359 27.477 13.0772 27.4322 12.625H7.48104C8.11058 9.74191 10.6782 7.58333 13.75 7.58333C15.9304 7.58333 17.8571 8.67098 19.0166 10.3333H27.0056C25.401 4.51949 20.0742 0.25 13.75 0.25C6.15617 0.25 0 6.40608 0 14C0 14.4641 0.0230509 14.9228 0.0678101 15.375H20.019Z"
        fill="#11174E" />
</svg>
