<svg width="125" height="125" viewBox="0 0 125 125" fill="none" xmlns="http://www.w3.org/2000/svg">
<path fill-rule="evenodd" clip-rule="evenodd" d="M62.5 91.6667C76.4628 91.6667 88.1337 81.8549 90.9953 68.75H78.3627C75.8699 75.0719 69.7071 79.5454 62.4996 79.5454C55.292 79.5454 49.1292 75.0719 46.6364 68.75H0.308228C0.104777 66.6943 0 64.6094 0 62.5C0 27.9822 27.9826 0 62.5 0C91.2465 0 115.459 19.4068 122.753 45.8333H86.439C81.1686 38.2772 72.4111 33.3333 62.5 33.3333C48.5372 33.3333 36.8663 43.1451 34.0047 56.25H46.6364C49.1292 49.928 55.2919 45.4545 62.4996 45.4545C69.7072 45.4545 75.8699 49.928 78.3627 56.25H124.692C124.895 58.3057 125 60.3906 125 62.5C125 97.0178 97.0174 125 62.5 125C33.7535 125 9.54081 105.593 2.24711 79.1667H38.561C43.8314 86.7228 52.5889 91.6667 62.5 91.6667Z" fill="url(#paint0_linear_788_11271)"/>
<defs>
<linearGradient id="paint0_linear_788_11271" x1="0" y1="0" x2="125" y2="125" gradientUnits="userSpaceOnUse">
<stop offset="0.400297" stop-color="#485BFF"/>
<stop offset="0.999227" stop-color="#A687FF"/>
</linearGradient>
</defs>
</svg>
