<svg width="77" height="77" viewBox="0 0 77 77" fill="none" xmlns="http://www.w3.org/2000/svg">
<path fill-rule="evenodd" clip-rule="evenodd" d="M38.0181 55.7599C46.5115 55.7599 53.6108 49.7915 55.3515 41.8199H47.6677C46.1514 45.6657 42.4026 48.3871 38.0181 48.3871C33.6337 48.3871 29.8848 45.6657 28.3686 41.8199H0.187492C0.0637348 40.5695 0 39.3012 0 38.0181C0 17.0213 17.0215 0 38.0181 0C55.5043 0 70.2326 11.8049 74.6693 27.8799H52.58C49.374 23.2836 44.0469 20.2763 38.0181 20.2763C29.5247 20.2763 22.4254 26.2447 20.6847 34.2163H28.3688C29.8853 30.3709 33.6339 27.6499 38.0181 27.6499C42.4023 27.6499 46.1509 30.3709 47.6674 34.2163H75.8487C75.9725 35.4667 76.0362 36.735 76.0362 38.0181C76.0362 59.0149 59.0147 76.0362 38.0181 76.0362C20.5319 76.0362 5.80358 64.2313 1.36689 48.1563H23.4563C26.6622 52.7526 31.9893 55.7599 38.0181 55.7599Z" fill="white"/>
</svg>
